<svg width="128" height="128" viewBox="0 0 128 128" fill="none" xmlns="http://www.w3.org/2000/svg">
<path d="M48.707 115.299L59.1484 123.782L90.4442 87.4266L80.5135 77.7761L48.707 115.299Z" fill="#BCBCBC"/>
<path d="M109.078 66.8248L73.454 35.3164L68.5215 49.0508L109.626 85.4067L109.078 66.8248Z" fill="#BCBCBC"/>
<path d="M59.1041 78.943L54.1716 92.6775L68.421 89.0419L73.3535 75.7114L59.1041 78.943Z" fill="#481799"/>
<path d="M37.1819 40.5677L73.3535 75.7117L59.1041 78.9434L18 42.5875L52.9905 2.99998L68.4777 4.21185L37.1819 40.5677Z" fill="#8E5CF7"/>
<path d="M78.9204 12.6947L68.479 4.21168L37.1832 40.5676L47.114 50.218L78.9204 12.6947Z" fill="#562DAC"/>
<path d="M18.5489 61.1691L54.1725 92.6775L59.105 78.9431L18.0009 42.5872L18.5489 61.1691Z" fill="#562DAC"/>
<path d="M90.4446 87.4262L54.2729 52.2822L68.5224 49.0505L109.626 85.4064L74.636 124.994L59.1487 123.782L90.4446 87.4262Z" fill="#E7E7E7"/>
<path d="M68.5224 49.0508L73.4549 35.3164L59.2054 38.952L54.2729 52.2825L68.5224 49.0508Z" fill="white"/>
</svg>
