<svg width="32" height="32" viewBox="0 0 32 32" fill="none" xmlns="http://www.w3.org/2000/svg">
    <path fill-rule="evenodd" clip-rule="evenodd" d="M21.1055 22.2926C24.3293 21.9336 27.1363 20.0807 27.4891 18.3878C28.045 15.7208 27.9991 11.8796 27.9991 11.8796C27.9991 6.67325 24.3422 5.14719 24.3422 5.14719C22.4984 4.35727 19.3322 4.02509 16.0428 4H15.962C12.6726 4.02509 9.50858 4.35727 7.66462 5.14719C7.66462 5.14719 4.00761 6.67325 4.00761 11.8796C4.00761 12.1952 4.00586 12.5272 4.00404 12.8728C3.99898 13.8326 3.99337 14.8974 4.02313 16.0089C4.15593 21.1004 5.02385 26.1184 10.0706 27.3644C12.3975 27.9389 14.3953 28.0591 16.0043 27.9766C18.9222 27.8257 20.5602 27.0053 20.5602 27.0053L20.4639 25.0305C20.4639 25.0305 18.3788 25.6438 16.037 25.5691C13.7169 25.4949 11.2676 25.3357 10.8923 22.6786C10.8577 22.4452 10.8403 22.1957 10.8403 21.9336C10.8403 21.9336 13.1179 22.4528 16.0043 22.5762C17.7693 22.6517 19.4244 22.4797 21.1055 22.2926ZM23.6855 18.5875V12.2835C23.6855 10.9951 23.3338 9.97125 22.6276 9.21378C21.8989 8.45631 20.9449 8.06801 19.7608 8.06801C18.3905 8.06801 17.3529 8.55924 16.667 9.54183L16 10.5847L15.3331 9.54183C14.647 8.55924 13.6094 8.06801 12.2393 8.06801C11.055 8.06801 10.101 8.45631 9.37257 9.21378C8.66614 9.97125 8.31446 10.9951 8.31446 12.2835V18.5875H10.992V12.4688C10.992 11.179 11.5738 10.5243 12.7375 10.5243C14.0242 10.5243 14.6692 11.3009 14.6692 12.8365V16.1856H17.3309V12.8365C17.3309 11.3009 17.9758 10.5243 19.2625 10.5243C20.4262 10.5243 21.008 11.179 21.008 12.4688V18.5875H23.6855Z" fill="currentColor" />
</svg>